# xmcd
#
# Track frame offsets:
#	150
#	25478
#	44549
#	66306
#	83454
#	99413
#	118870
#	144910
#	159674
#	175832
#	194774
#	215731
#	228445
#	247212
#	263060
#
# Disc length: 3974 seconds
#
# Revision: 0
# Processed by: cddbd v1.5.2PL0 Copyright (c) Steve Scherf et al.
# Submitted via: EasyCDDAExtractor 15.3.0.1
#
DISCID=dd0f840f
DTITLE=Aare Vaher sax - Vihma laul
DYEAR=2006
DGENRE=Blues
TTITLE0=Linnu blues
TTITLE1=Flegma
TTITLE2=Jalle talv
TTITLE3=Provintslinn
TTITLE4=Vihmamarg mets
TTITLE5=Maasikasaar
TTITLE6=Purjus madruse blues
TTITLE7=Lihtsalt vals
TTITLE8=La cardemone
TTITLE9=Poni hallilaul
TTITLE10=Vana harjavanker
TTITLE11=Bastiani ragtime
TTITLE12=Varjude tants
TTITLE13=Tuhkatriinu menuett
TTITLE14=Vihma laul
EXTD=
EXTT0=
EXTT1=
EXTT2=
EXTT3=
EXTT4=
EXTT5=
EXTT6=
EXTT7=
EXTT8=
EXTT9=
EXTT10=
EXTT11=
EXTT12=
EXTT13=
EXTT14=
PLAYORDER=
